#!OML:ASF E:/inclinewalkrobotboard/Project1/Captureday1/Session1/subject1.ASF
:FULLY-SPECIFIED
:DEGREES
26
root 0 0 0 -3.3301387857676494 -3.8840996086806827 -2.7759818153320865
lowerback 9.682442688544715 -0.09889167197570603 -0.1922627633623668
upperback -1.8280177647506042 -0.08040439199960847 1.3676382883600207
thorax -7.360796017541559 -0.055221733875276624 1.56399225876171
lowerneck -16.452079677962644 -1.722591948848735 1.0618858130423812
upperneck 18.44640843234597 -2.3901702811470606 -1.5789461568388286
head 8.921235476800426 -1.092479202271551 -0.9821288817850209
rclavicle -9.78046797043479E-16 1.2181192446725806E-15
rhumerus -24.69934163457649 -27.730302220976764 -78.59269293761679
rradius 40.25376644428132
rwrist 21.601853954653183
rhand -20.70112261376673 8.37655130363211
rfingers 7.125019999999972
rthumb 5.666357567265897 -21.70452749842574
lclavicle 1.0448608502201585E-15 -9.051341860185557E-16
lhumerus -38.41809452311377 2.1958702772808185 77.23765932722704
lradius 31.855886896671276
lwrist 7.74021827969252
lhand -26.78925048918212 23.75719016967968
lfingers 7.125019999999966
lthumb -0.18891035242239163 53.71525638519216
rfemur -10.585977368197906 3.8707976830974276 20.192014608197645
rtibia 29.53528592858634
rfoot -6.470055213304958 -5.250469366559462
rtoes 3.01705058987159
lfemur -15.036813809430846 2.5502844119187973 -13.714606531856022
ltibia 34.67637865225236
lfoot -9.25982323042792 -0.13893450476060698
ltoes -31.04070759510103
27
root 0 0 0 -3.332291236946666 -3.8842501670420866 -2.7780643068362103
lowerback 9.688715358810969 -0.0969077217875387 -0.19544330308540847
upperback -1.8284000693248197 -0.07725054324722191 1.3711840714071009
thorax -7.364353912154619 -0.05353908648085681 1.569068157364201
lowerneck -16.44977868024038 -1.7272558429536136 1.062104071730488
upperneck 18.50875654470878 -2.3979653489309536 -1.579250457609555
head 8.943854954638399 -1.0953086276759656 -0.9836384612865583
rclavicle -9.514443710622165E-16 1.2299170126815844E-15
rhumerus -24.631474970463223 -27.62002911307262 -78.53157007167215
rradius 40.461867378713706
rwrist 21.430603934032302
rhand -20.704510054242196 8.342438935625113
rfingers 7.125019999999973
rthumb 5.663412432478554 -21.738010846732294
lclavicle 1.241888183208284E-15 -9.744811680760824E-16
lhumerus -38.54362727461219 1.966930972597623 77.13243471486501
lradius 32.46516238956094
lwrist 8.136999337398974
lhand -26.793530250808075 23.66363027916993
lfingers 7.125019999999966
lthumb -0.19531582778116352 53.61900012926989
rfemur -10.58417580952721 3.8742474810963126 20.196304252935352
rtibia 29.520868277358836
rfoot -6.480396372914308 -5.253399327319095
rtoes 3.0106208324709662
lfemur -15.007498213668356 2.5363999061788567 -13.70251082140012
ltibia 34.650157437048165
lfoot -9.304423905967361 -0.10588358736714243
ltoes -31.122609017068616
28
root 0 0 0 -3.335105112599 -3.8835604623930187 -2.777683688280657
lowerback 9.689326348571853 -0.09691035617875732 -0.2000922456524853
upperback -1.8329566138420328 -0.07729194570477071 1.3726335791144124
thorax -7.369607939593685 -0.053451716478972955 1.573247377523448
lowerneck -16.454327417422462 -1.7293262622459522 1.0636293617623251
upperneck 18.540025429146343 -2.4018956769286097 -1.581070347419096
head 8.956844323024415 -1.096610103368281 -0.9851785882659572
rclavicle -9.2985143605439E-16 1.215859057743861E-15
rhumerus -24.563671631446276 -27.627987312332383 -78.4649529578605
rradius 40.554337320242624
rwrist 21.354580506722556
rhand -20.70138356246751 8.301943985966414
rfingers 7.125019999999973
rthumb 5.666457782238313 -21.779301018522098
lclavicle 1.3500957229438936E-15 -9.846000806429645E-16
lhumerus -38.61556270004271 1.8849417419754713 77.07726525628198
lradius 32.71379827521401
lwrist 8.29521953445465
lhand -26.790657068889328 23.621833618853568
lfingers 7.125019999999966
lthumb -0.1935726201127217 53.57639539654538
rfemur -10.586428270902347 3.8758246313679017 20.199076194768132
rtibia 29.518302959759936
rfoot -6.48435441440982 -5.255231457367618
rtoes 3.0080416435767945
lfemur -14.979535081205274 2.52161278591547 -13.705424453779802
ltibia 34.635466160059295
lfoot -9.322826359738098 -0.09328802814005188
ltoes -31.13043697586415
29
root 0 0 0 -3.3367409328688726 -3.882645246114014 -2.7775928390955396
lowerback 9.690122783327944 -0.09701602030180312 -0.20364160110600915
upperback -1.8358738338936949 -0.07742979208536194 1.374037839208657
thorax -7.37315621399801 -0.05342817866172134 1.5767579530191558
lowerneck -16.456196450215828 -1.730959005533084 1.064900113477103
upperneck 18.564941558419825 -2.4048867976135124 -1.5824604749411393
head 8.966786200628498 -1.0976248704912228 -0.9863582965406834
rclavicle -9.07801858885346E-16 1.2154158581904534E-15
rhumerus -24.527405303648028 -27.632142189753967 -78.41780952562223
rradius 40.61877484918256
rwrist 21.280081985605637
rhand -20.698086646553747 8.267771082675958
rfingers 7.125019999999973
rthumb 5.669651540807122 -21.81346813282341
lclavicle 1.432354569398761E-15 -1.0052186124458278E-15
lhumerus -38.66893814134147 1.8192581666792542 77.03538026822054
lradius 32.90837177948107
lwrist 8.418976335752745
lhand -26.789197007911625 23.58938630187269
lfingers 7.125019999999966
lthumb -0.19287759127758086 53.542835644827704
rfemur -10.585146768047865 3.876430338553636 20.19797949652339
rtibia 29.510639154454786
rfoot -6.486570016888463 -5.255589150650015
rtoes 3.0056422551774276
lfemur -14.95967763096965 2.510948894892863 -13.70675575141113
ltibia 34.62381297375465
lfoot -9.338086588951017 -0.08289535776570389
ltoes -31.139218299997918
30
root 0 0 0 -3.33825307517643 -3.8816839114140347 -2.777160736358013
lowerback 9.690259104563948 -0.09731976140703902 -0.20680038586023008
upperback -1.8379524609288564 -0.07786034515693907 1.3753236969023603
thorax -7.375431480059813 -0.053552526146550705 1.5799790007527763
lowerneck -16.457801257761805 -1.7322424318223208 1.0656900996973153
upperneck 18.58681385521088 -2.407205065590201 -1.5836340480340436
head 8.975350652509501 -1.0984029567025793 -0.987305554508497
rclavicle -8.842754279780057E-16 1.2135255263514274E-15
rhumerus -24.508666740630023 -27.634249663819304 -78.38738048948042
rradius 40.65512312558068
rwrist 21.217041113117563
rhand -20.69331921698586 8.240367575274012
rfingers 7.125019999999973
rthumb 5.674251897276351 -21.840363664100114
lclavicle 1.4965652609050943E-15 -1.0220296514850674E-15
lhumerus -38.70675060002632 1.7676411679527624 77.00488544886657
lradius 33.056538367308974
lwrist 8.514136744426958
lhand -26.788975886691837 23.565934700067395
lfingers 7.125019999999966
lthumb -0.1932173165818014 53.518718254429686
rfemur -10.584377353495853 3.8768088755686994 20.19706246210056
rtibia 29.505313513603245
rfoot -6.487960393476745 -5.2558144649189105
rtoes 3.0039356069711105
lfemur -14.943728673404673 2.5031564183410513 -13.70844241157183
ltibia 34.615299158977265
lfoot -9.349129589987953 -0.07589114323643109
ltoes -31.14366760831683
31
root 0 0 0 -3.3388536894977463 -3.881719502641272 -2.7788064543608986
lowerback 9.693221998624233 -0.09619785829809524 -0.2080003527749501
upperback -1.8370312354754432 -0.07604098741703402 1.3774965021292866
thorax -7.375891639651451 -0.052584506476126336 1.5827000256619579
lowerneck -16.453143337931817 -1.7348313854220274 1.0657474194268142
upperneck 18.616405934321893 -2.411256635876832 -1.5831563837885574
head 8.985305068688943 -1.099966201746152 -0.9878293123926387
rclavicle -8.824820602727844E-16 1.2210863917591588E-15
rhumerus -24.462617096746875 -27.549931501495095 -78.35521525724508
rradius 40.789632312850415
rwrist 21.110584382607982
rhand -20.696411050614245 8.227262293876699
rfingers 7.125019999999973
rthumb 5.671629511316247 -21.853937306518553
lclavicle 1.5870699104429067E-15 -1.026482083032554E-15
lhumerus -38.74593622507521 1.6534653683769547 76.96808112047958
lradius 33.33152741325592
lwrist 8.699505429536332
lhand -26.79566944437247 23.532503716800832
lfingers 7.125019999999966
lthumb -0.20062946241715007 53.48488417487839
rfemur -10.585728302699929 3.8790369778539446 20.203924435184735
rtibia 29.506165098640732
rfoot -6.4942222650608254 -5.25824710098834
rtoes 3.0023956318210985
lfemur -14.939005815967846 2.502756478508246 -13.702474832301704
ltibia 34.60949813116455
lfoot -9.36163620687721 -0.0664283189264041
ltoes -31.176671347646998
32
root 0 0 0 -3.3387400955740043 -3.8816440107277814 -2.780071240605957
lowerback 9.696072097061153 -0.0958294476559125 -0.2085959106014046
upperback -1.8360637326005418 -0.07534643802802798 1.378848392457243
thorax -7.376267930874564 -0.05221915371431607 1.5843487654529835
lowerneck -16.450272855972642 -1.7358625291404037 1.0666289644957536
upperneck 18.636128272881667 -2.412989274404307 -1.5840887043620377
head 8.99195143977292 -1.1005661421698143 -0.9886183405587201
rclavicle -9.01972133714584E-16 1.2013098816786507E-15
rhumerus -24.39463876305166 -27.551814985906073 -78.2950268409017
rradius 40.90390179022743
rwrist 21.075503580717157
rhand -20.70282868882028 8.201385410985424
rfingers 7.125019999999973
rthumb 5.66529611100273 -21.881116185446526
lclavicle 1.5699415978563586E-15 -1.0830019458381932E-15
lhumerus -38.76782687466899 1.6247658703595926 76.94777324300433
lradius 33.41583044750746
lwrist 8.752285266097562
lhand -26.796370046713886 23.51677522047209
lfingers 7.125019999999966
lthumb -0.2022938634390945 53.46907350798556
rfemur -10.586193092907648 3.879886334474872 20.20293055925674
rtibia 29.50068449048684
rfoot -6.49588118420508 -5.258712969388193
rtoes 2.999889498146884
lfemur -14.933885600445436 2.4995174997534884 -13.698664450832988
ltibia 34.603102318891096
lfoot -9.370903043626395 -0.058880419828585495
ltoes -31.197717188669465
33
root 0 0 0 -3.340748238265477 -3.8812351941778562 -2.778957200954215
lowerback 9.69544345839405 -0.09594836230145987 -0.21182250644594935
upperback -1.8411827470237991 -0.07570085716718866 1.3785787330245967
thorax -7.381599333452856 -0.05233706784519265 1.5859187796980678
lowerneck -16.456416275610525 -1.736564527898574 1.0678375148610795
upperneck 18.64316914843134 -2.414751159972302 -1.5849260005601973
head 8.996575396669643 -1.1010878806766047 -0.9893122087076218
rclavicle -8.621707894515556E-16 1.2206382952176723E-15
rhumerus -24.408843409907494 -27.58247082003708 -78.2879863789239
rradius 40.86696378514608
rwrist 21.048088177416243
rhand -20.695446658556435 8.183889141111559
rfingers 7.125019999999973
rthumb 5.672432054139439 -21.897575152643626
lclavicle 1.6401626295566512E-15 -1.0569716624905581E-15
lhumerus -38.78844970353167 1.6149646245212104 76.93341670759129
lradius 33.45969979530125
lwrist 8.77844586868519
lhand -26.793885818600394 23.508782221715457
lfingers 7.125019999999966
lthumb -0.19958844209118798 53.460231017418366
rfemur -10.583625345994992 3.879360443539559 20.199925873502007
rtibia 29.4944711717835
rfoot -6.495384936732048 -5.2579952068996265
rtoes 2.999028736106652
lfemur -14.921435379402013 2.4921840399347515 -13.702587331904237
ltibia 34.59839253646235
lfoot -9.37663086405357 -0.0555241532634545
ltoes -31.18934396687826
